<svg width="193" height="40" viewBox="0 0 193 40" fill="none" xmlns="http://www.w3.org/2000/svg">
<path d="M105 2.5H193" stroke="white" stroke-width="2"/>
<path d="M105 39H193" stroke="white" stroke-width="2"/>
<path d="M112.857 8.28003C115.993 8.28003 117.913 10.104 117.913 13.4V14.04L114.649 14.36V13.656C114.649 12.12 114.073 11.416 112.889 11.416C111.897 11.416 111.193 11.96 111.193 13.24V13.72C111.193 14.968 111.833 15.992 114.041 18.008C117.049 20.792 118.073 22.616 118.073 25.208V26.296C118.073 29.592 115.993 31.32 112.889 31.32C109.753 31.32 107.641 29.496 107.641 26.2V24.728L110.905 24.408V25.944C110.905 27.448 111.609 28.184 112.825 28.184C113.849 28.184 114.681 27.64 114.681 26.04V25.336C114.681 23.928 114.041 22.904 111.833 20.888C108.825 18.104 107.801 16.28 107.801 13.848V13.304C107.801 10.008 109.721 8.28003 112.857 8.28003Z" fill="white"/>
<path d="M129.351 11.8H125.735V31H122.343V11.8H118.727V8.60003H129.351V11.8Z" fill="white"/>
<path d="M141.785 8.60003V25.976C141.785 29.496 139.769 31.32 136.505 31.32C133.305 31.32 131.289 29.496 131.289 25.976V8.60003H134.553V25.88C134.553 27.512 135.289 28.12 136.473 28.12C137.657 28.12 138.393 27.512 138.393 25.88V8.60003H141.785Z" fill="white"/>
<path d="M145.231 8.60003H150.095C153.743 8.60003 155.727 10.584 155.727 14.264V25.336C155.727 29.016 153.743 31 150.095 31H145.231V8.60003ZM148.623 11.736V27.864H149.967C151.599 27.864 152.335 27 152.335 25.112V14.488C152.335 12.6 151.599 11.736 149.967 11.736H148.623Z" fill="white"/>
<path d="M162.404 31H159.012V8.60003H162.404V31Z" fill="white"/>
<path d="M171.163 8.28003C174.555 8.28003 176.635 10.424 176.635 13.944V25.656C176.635 29.176 174.555 31.32 171.163 31.32C167.771 31.32 165.691 29.176 165.691 25.656V13.944C165.691 10.424 167.771 8.28003 171.163 8.28003ZM171.163 11.416C169.819 11.416 169.083 12.312 169.083 13.976V25.624C169.083 27.288 169.819 28.184 171.163 28.184C172.507 28.184 173.243 27.288 173.243 25.624V13.976C173.243 12.312 172.507 11.416 171.163 11.416Z" fill="white"/>
<path d="M184.075 8.28003C187.211 8.28003 189.131 10.104 189.131 13.4V14.04L185.867 14.36V13.656C185.867 12.12 185.291 11.416 184.107 11.416C183.115 11.416 182.411 11.96 182.411 13.24V13.72C182.411 14.968 183.051 15.992 185.259 18.008C188.267 20.792 189.291 22.616 189.291 25.208V26.296C189.291 29.592 187.211 31.32 184.107 31.32C180.971 31.32 178.859 29.496 178.859 26.2V24.728L182.123 24.408V25.944C182.123 27.448 182.827 28.184 184.043 28.184C185.067 28.184 185.899 27.64 185.899 26.04V25.336C185.899 23.928 185.259 22.904 183.051 20.888C180.043 18.104 179.019 16.28 179.019 13.848V13.304C179.019 10.008 180.939 8.28003 184.075 8.28003Z" fill="white"/>
<g clip-path="url(#clip0_698_63)">
<path d="M0 0H100V40H0V0Z" fill="#F0141E"/>
<path d="M84.6243 9.32382V3.19822H67.4831L64.6611 23.6546L61.8731 3.19822H55.6915L56.3823 8.66062C55.6697 7.26062 53.1401 3.19822 47.5701 3.19822C47.5331 3.19582 41.3811 3.19822 41.3811 3.19822L41.3555 33.015L36.8509 3.19822L28.7541 3.19582L24.0933 34.0892L24.0959 3.19822H16.3455L13.5525 20.5518L10.8317 3.19822H3.08008V36.7846H9.18468V20.5958L11.9619 36.7846H15.2067L17.9447 20.5958V36.7846H29.7123L30.4239 31.6186H35.1615L35.8731 36.7846L47.4273 36.792H47.4357V36.7846H47.4501V25.8838L48.8649 25.679L51.7971 36.792H57.7737L57.7713 36.7846H57.7883L53.9407 23.7626C55.8889 22.3268 58.0911 18.6868 57.5051 15.203V15.2018C57.5123 15.247 61.1379 36.807 61.1379 36.807L68.2447 36.785L73.1005 6.34442V36.785H84.6239V30.7452H79.1551V23.0438H84.6239V16.9118H79.1551V9.32382H84.6243ZM31.1429 26.294L32.8203 11.9336L34.5583 26.294H31.1429ZM48.8845 19.663C48.4157 19.8876 47.9277 20 47.4501 20.0012V9.19922C47.4575 9.19922 47.4687 9.19802 47.4807 9.19802C47.9567 9.19442 51.5213 9.34082 51.5213 14.5398C51.5213 17.2594 50.3093 18.9746 48.8845 19.663ZM96.9217 30.7396V36.7772H85.6789V3.19342H91.7333V30.7396H96.9217Z" fill="white"/>
</g>
<defs>
<clipPath id="clip0_698_63">
<rect width="100" height="40" fill="white"/>
</clipPath>
</defs>
</svg>
