<svg width="23" height="26" viewBox="0 0 23 26" fill="none" xmlns="http://www.w3.org/2000/svg">
<g clip-path="url(#clip0_697_32)">
<path d="M19.0453 4.85509C16.9503 2.7551 14.1602 1.6001 11.1952 1.6001C5.07509 1.6001 0.0950017 6.58009 0.0950017 12.7001C0.0950017 14.6551 0.605011 16.5651 1.57503 18.2501L0 24.0001L5.8851 22.4551C7.50513 23.3401 9.33016 23.8051 11.1902 23.8051H11.1952C17.3103 23.8051 22.4004 18.8251 22.4004 12.7051C22.4004 9.74009 21.1404 6.95509 19.0453 4.85509ZM11.1952 21.9351C9.53517 21.9351 7.91014 21.4901 6.49511 20.6501L6.16011 20.4501L2.67005 21.3651L3.60006 17.9601L3.38006 17.6101C2.45504 16.1401 1.97003 14.4451 1.97003 12.7001C1.97003 7.61509 6.11011 3.4751 11.2002 3.4751C13.6652 3.4751 15.9803 4.43509 17.7203 6.18009C19.4603 7.92509 20.5304 10.2401 20.5254 12.7051C20.5254 17.7951 16.2803 21.9351 11.1952 21.9351ZM16.2553 15.0251C15.9803 14.8851 14.6153 14.2151 14.3603 14.1251C14.1052 14.0301 13.9202 13.9851 13.7352 14.2651C13.5502 14.5451 13.0202 15.1651 12.8552 15.3551C12.6952 15.5401 12.5302 15.5651 12.2552 15.4251C10.6252 14.6101 9.55517 13.9701 8.48015 12.1251C8.19514 11.6351 8.76515 11.6701 9.29516 10.6101C9.38516 10.4251 9.34016 10.2651 9.27016 10.1251C9.20016 9.98509 8.64515 8.62009 8.41515 8.06509C8.19014 7.52509 7.96014 7.60009 7.79014 7.59009C7.63013 7.58009 7.44513 7.58009 7.26013 7.58009C7.07512 7.58009 6.77512 7.65009 6.52011 7.92509C6.26511 8.20509 5.5501 8.87509 5.5501 10.2401C5.5501 11.6051 6.54511 12.9251 6.68012 13.1101C6.82012 13.2951 8.63515 16.0951 11.4202 17.3001C13.1802 18.0601 13.8702 18.1251 14.7503 17.9951C15.2853 17.9151 16.3903 17.3251 16.6203 16.6751C16.8503 16.0251 16.8503 15.4701 16.7803 15.3551C16.7153 15.2301 16.5303 15.1601 16.2553 15.0251Z" fill="white"/>
</g>
<defs>
<clipPath id="clip0_697_32">
<rect width="22.4004" height="25.6" fill="white"/>
</clipPath>
</defs>
</svg>
